<?xml version="1.0" encoding="UTF-8"?>
<svg width="169px" height="26px" viewBox="0 0 169 26" version="1.1" xmlns="http://www.w3.org/2000/svg" xmlns:xlink="http://www.w3.org/1999/xlink">
    <!-- Generator: Sketch 53.2 (72643) - https://sketchapp.com -->
    <title>mayoneese</title>
    <desc>Created with Sketch.</desc>
    <defs>
        <path d="M249.52,88.345 C253.603354,88.345 255.645,90.8883079 255.645,95.975 L255.645,105.32 C255.645,105.810002 255.493335,106.212498 255.19,106.5275 C254.886665,106.842502 254.490002,107 254,107 C253.509998,107 253.107502,106.836668 252.7925,106.51 C252.477498,106.183332 252.32,105.786669 252.32,105.32 L252.32,96.01 C252.32,92.9533181 251.036679,91.425 248.47,91.425 C247.559995,91.425 246.737504,91.6291646 246.0025,92.0375 C245.267496,92.4458354 244.695835,92.9999965 244.2875,93.7 C243.879165,94.4000035 243.675,95.1699958 243.675,96.01 L243.675,105.32 C243.675,105.786669 243.517502,106.183332 243.2025,106.51 C242.887498,106.836668 242.485002,107 241.995,107 C241.504998,107 241.108335,106.842502 240.805,106.5275 C240.501665,106.212498 240.35,105.810002 240.35,105.32 L240.35,95.975 C240.35,94.5983265 240.058336,93.4958375 239.475,92.6675 C238.891664,91.8391625 237.92334,91.425 236.57,91.425 C235.193326,91.425 234.055838,91.8624956 233.1575,92.7375 C232.259162,93.6125044 231.81,94.6916602 231.81,95.975 L231.81,105.32 C231.81,105.786669 231.652502,106.183332 231.3375,106.51 C231.022498,106.836668 230.620002,107 230.13,107 C229.639998,107 229.243335,106.842502 228.94,106.5275 C228.636665,106.212498 228.485,105.810002 228.485,105.32 L228.485,90.34 C228.485,89.873331 228.642498,89.4766683 228.9575,89.15 C229.272502,88.8233317 229.663331,88.66 230.13,88.66 C230.620002,88.66 231.022498,88.8233317 231.3375,89.15 C231.652502,89.4766683 231.81,89.873331 231.81,90.34 L231.81,91.565 C232.41667,90.6549955 233.227495,89.8908364 234.2425,89.2725 C235.257505,88.6541636 236.359994,88.345 237.55,88.345 C240.443348,88.345 242.321662,89.6283205 243.185,92.195 C243.698336,91.2149951 244.549994,90.3283373 245.74,89.535 C246.930006,88.7416627 248.189993,88.345 249.52,88.345 Z M273.04,88.415 C273.530002,88.415 273.932498,88.5724984 274.2475,88.8875 C274.562502,89.2025016 274.72,89.6166641 274.72,90.13 L274.72,105.32 C274.72,105.786669 274.562502,106.183332 274.2475,106.51 C273.932498,106.836668 273.530002,107 273.04,107 C272.549998,107 272.153335,106.842502 271.85,106.5275 C271.546665,106.212498 271.395,105.810002 271.395,105.32 L271.395,104.41 C270.78833,105.226671 269.960005,105.92083 268.91,106.4925 C267.859995,107.06417 266.728339,107.35 265.515,107.35 C263.928325,107.35 262.487506,106.941671 261.1925,106.125 C259.897494,105.308329 258.882504,104.170841 258.1475,102.7125 C257.412496,101.254159 257.045,99.6150091 257.045,97.795 C257.045,95.9749909 257.412496,94.3358406 258.1475,92.8775 C258.882504,91.4191594 259.89166,90.2816707 261.175,89.465 C262.45834,88.6483293 263.869992,88.24 265.41,88.24 C266.646673,88.24 267.795828,88.4966641 268.8575,89.01 C269.919172,89.5233359 270.764997,90.1766627 271.395,90.97 L271.395,90.13 C271.395,89.6399976 271.546665,89.2316683 271.85,88.905 C272.153335,88.5783317 272.549998,88.415 273.04,88.415 Z M265.9,104.27 C266.996672,104.27 267.970829,103.990003 268.8225,103.43 C269.674171,102.869997 270.339164,102.100005 270.8175,101.12 C271.295836,100.139995 271.535,99.0316729 271.535,97.795 C271.535,96.5816606 271.295836,95.4850049 270.8175,94.505 C270.339164,93.5249951 269.674171,92.7491695 268.8225,92.1775 C267.970829,91.6058305 266.996672,91.32 265.9,91.32 C264.803328,91.32 263.829171,91.5999972 262.9775,92.16 C262.125829,92.7200028 261.460836,93.4899951 260.9825,94.47 C260.504164,95.4500049 260.265,96.5583271 260.265,97.795 C260.265,99.0316729 260.504164,100.139995 260.9825,101.12 C261.460836,102.100005 262.125829,102.869997 262.9775,103.43 C263.829171,103.990003 264.803328,104.27 265.9,104.27 Z M290.435,88.485 C290.925002,88.485 291.327498,88.6483317 291.6425,88.975 C291.957502,89.3016683 292.115,89.698331 292.115,90.165 L292.115,105.285 C292.115,108.201681 291.310008,110.383326 289.7,111.83 C288.089992,113.276674 285.96668,114 283.33,114 C282.466662,114 281.615004,113.918334 280.775,113.755 C279.934996,113.591666 279.246669,113.370001 278.71,113.09 C277.846662,112.693331 277.415,112.15667 277.415,111.48 C277.415,111.363333 277.438333,111.211668 277.485,111.025 C277.625001,110.628331 277.823332,110.325001 278.08,110.115 C278.336668,109.904999 278.628332,109.8 278.955,109.8 C279.141668,109.8 279.316666,109.835 279.48,109.905 C280.203337,110.231668 280.844997,110.488332 281.405,110.675 C281.965003,110.861668 282.61833,110.955 283.365,110.955 C286.981685,110.955 288.79,109.100019 288.79,105.39 L288.79,104.69 C288.159997,105.530004 287.349172,106.183331 286.3575,106.65 C285.365828,107.116669 284.22834,107.35 282.945,107.35 C281.008324,107.35 279.497505,106.731673 278.4125,105.495 C277.327495,104.258327 276.785,102.636677 276.785,100.63 L276.785,90.165 C276.785,89.6749976 276.936665,89.2725016 277.24,88.9575 C277.543335,88.6424984 277.939998,88.485 278.43,88.485 C278.920002,88.485 279.322498,88.6483317 279.6375,88.975 C279.952502,89.3016683 280.11,89.698331 280.11,90.165 L280.11,99.755 C280.11,101.295008 280.44833,102.432496 281.125,103.1675 C281.80167,103.902504 282.828326,104.27 284.205,104.27 C285.535007,104.27 286.631662,103.850004 287.495,103.01 C288.358338,102.169996 288.79,101.085007 288.79,99.755 L288.79,90.165 C288.79,89.6749976 288.941665,89.2725016 289.245,88.9575 C289.548335,88.6424984 289.944998,88.485 290.435,88.485 Z M311.785,97.83 C311.785,99.6500091 311.376671,101.283326 310.56,102.73 C309.743329,104.176674 308.629174,105.308329 307.2175,106.125 C305.805826,106.941671 304.248342,107.35 302.545,107.35 C300.841658,107.35 299.284174,106.941671 297.8725,106.125 C296.460826,105.308329 295.346671,104.176674 294.53,102.73 C293.713329,101.283326 293.305,99.6500091 293.305,97.83 C293.305,96.0099909 293.713329,94.3650073 294.53,92.895 C295.346671,91.4249926 296.460826,90.2816707 297.8725,89.465 C299.284174,88.6483293 300.841658,88.24 302.545,88.24 C304.248342,88.24 305.805826,88.6483293 307.2175,89.465 C308.629174,90.2816707 309.743329,91.4249926 310.56,92.895 C311.376671,94.3650073 311.785,96.0099909 311.785,97.83 Z M308.46,97.83 C308.46,96.5699937 308.197503,95.4441716 307.6725,94.4525 C307.147497,93.4608284 306.435838,92.6908361 305.5375,92.1425 C304.639162,91.5941639 303.641672,91.32 302.545,91.32 C301.448328,91.32 300.450838,91.5941639 299.5525,92.1425 C298.654162,92.6908361 297.942503,93.4608284 297.4175,94.4525 C296.892497,95.4441716 296.63,96.5699937 296.63,97.83 C296.63,99.0666729 296.892497,100.174995 297.4175,101.155 C297.942503,102.135005 298.654162,102.899164 299.5525,103.4475 C300.450838,103.995836 301.448328,104.27 302.545,104.27 C303.641672,104.27 304.639162,103.995836 305.5375,103.4475 C306.435838,102.899164 307.147497,102.135005 307.6725,101.155 C308.197503,100.174995 308.46,99.0666729 308.46,97.83 Z M322.53,88.24 C326.730021,88.24 328.83,90.7599748 328.83,95.8 L328.83,105.32 C328.83,105.786669 328.672502,106.183332 328.3575,106.51 C328.042498,106.836668 327.640002,107 327.15,107 C326.683331,107 326.292502,106.836668 325.9775,106.51 C325.662498,106.183332 325.505,105.786669 325.505,105.32 L325.505,95.835 C325.505,94.4583265 325.190003,93.3616708 324.56,92.545 C323.929997,91.7283293 322.90334,91.32 321.48,91.32 C320.546662,91.32 319.700837,91.5241646 318.9425,91.9325 C318.184163,92.3408354 317.589169,92.8891632 317.1575,93.5775 C316.725831,94.2658368 316.51,95.0183292 316.51,95.835 L316.51,105.32 C316.51,105.786669 316.352502,106.183332 316.0375,106.51 C315.722498,106.836668 315.320002,107 314.83,107 C314.339998,107 313.943335,106.842502 313.64,106.5275 C313.336665,106.212498 313.185,105.810002 313.185,105.32 L313.185,90.34 C313.185,89.873331 313.342498,89.4766683 313.6575,89.15 C313.972502,88.8233317 314.363331,88.66 314.83,88.66 C315.320002,88.66 315.722498,88.8233317 316.0375,89.15 C316.352502,89.4766683 316.51,89.873331 316.51,90.34 L316.51,91.565 C317.11667,90.631662 317.962495,89.8441699 319.0475,89.2025 C320.132505,88.5608301 321.293327,88.24 322.53,88.24 Z M347.45,97.13 C347.426667,97.5500021 347.251668,97.9058319 346.925,98.1975 C346.598332,98.4891681 346.213336,98.635 345.77,98.635 L333.45,98.635 C333.613334,100.338342 334.260828,101.703328 335.3925,102.73 C336.524172,103.756672 337.906658,104.27 339.54,104.27 C340.660006,104.27 341.569997,104.106668 342.27,103.78 C342.970004,103.453332 343.588331,103.033336 344.125,102.52 C344.475002,102.309999 344.813332,102.205 345.14,102.205 C345.536669,102.205 345.869165,102.344999 346.1375,102.625 C346.405835,102.905001 346.54,103.231665 346.54,103.605 C346.54,104.095002 346.306669,104.538331 345.84,104.935 C345.16333,105.61167 344.265006,106.183331 343.145,106.65 C342.024994,107.116669 340.881673,107.35 339.715,107.35 C337.824991,107.35 336.162507,106.953337 334.7275,106.16 C333.292493,105.366663 332.184171,104.25834 331.4025,102.835 C330.620829,101.41166 330.23,99.8016756 330.23,98.005 C330.23,96.0449902 330.632496,94.3241741 331.4375,92.8425 C332.242504,91.3608259 333.30416,90.2233373 334.6225,89.43 C335.94084,88.6366627 337.358326,88.24 338.875,88.24 C340.368341,88.24 341.768327,88.6249962 343.075,89.395 C344.381673,90.1650039 345.431663,91.2266599 346.225,92.58 C347.018337,93.9333401 347.426667,95.4499916 347.45,97.13 Z M338.875,91.32 C337.568327,91.32 336.436671,91.6874963 335.48,92.4225 C334.523329,93.1575037 333.893335,94.2949923 333.59,95.835 L343.915,95.835 L343.915,95.555 C343.798333,94.3183272 343.244172,93.3033373 342.2525,92.51 C341.260828,91.7166627 340.135006,91.32 338.875,91.32 Z M364.95,97.13 C364.926667,97.5500021 364.751668,97.9058319 364.425,98.1975 C364.098332,98.4891681 363.713336,98.635 363.27,98.635 L350.95,98.635 C351.113334,100.338342 351.760828,101.703328 352.8925,102.73 C354.024172,103.756672 355.406659,104.27 357.04,104.27 C358.160006,104.27 359.069997,104.106668 359.77,103.78 C360.470004,103.453332 361.088331,103.033336 361.625,102.52 C361.975002,102.309999 362.313332,102.205 362.64,102.205 C363.036669,102.205 363.369165,102.344999 363.6375,102.625 C363.905835,102.905001 364.04,103.231665 364.04,103.605 C364.04,104.095002 363.806669,104.538331 363.34,104.935 C362.66333,105.61167 361.765006,106.183331 360.645,106.65 C359.524994,107.116669 358.381673,107.35 357.215,107.35 C355.324991,107.35 353.662507,106.953337 352.2275,106.16 C350.792493,105.366663 349.684171,104.25834 348.9025,102.835 C348.120829,101.41166 347.73,99.8016756 347.73,98.005 C347.73,96.0449902 348.132496,94.3241741 348.9375,92.8425 C349.742504,91.3608259 350.80416,90.2233373 352.1225,89.43 C353.44084,88.6366627 354.858326,88.24 356.375,88.24 C357.868341,88.24 359.268327,88.6249962 360.575,89.395 C361.881673,90.1650039 362.931663,91.2266599 363.725,92.58 C364.518337,93.9333401 364.926667,95.4499916 364.95,97.13 Z M356.375,91.32 C355.068327,91.32 353.936671,91.6874963 352.98,92.4225 C352.023329,93.1575037 351.393335,94.2949923 351.09,95.835 L361.415,95.835 L361.415,95.555 C361.298333,94.3183272 360.744172,93.3033373 359.7525,92.51 C358.760828,91.7166627 357.635006,91.32 356.375,91.32 Z M365.3,104.13 C365.089999,103.803332 364.985,103.488335 364.985,103.185 C364.985,102.718331 365.229998,102.321668 365.72,101.995 C365.953334,101.831666 366.221665,101.75 366.525,101.75 C366.945002,101.75 367.329998,101.924998 367.68,102.275 C368.380004,103.068337 369.132496,103.663331 369.9375,104.06 C370.742504,104.456669 371.704994,104.655 372.825,104.655 C373.711671,104.631667 374.49333,104.427502 375.17,104.0425 C375.84667,103.657498 376.185,103.033338 376.185,102.17 C376.185,101.376663 375.840837,100.770002 375.1525,100.35 C374.464163,99.9299979 373.455007,99.5450017 372.125,99.195 C370.818327,98.8449983 369.733338,98.4775019 368.87,98.0925 C368.006662,97.7074981 367.277503,97.1475037 366.6825,96.4125 C366.087497,95.6774963 365.79,94.715006 365.79,93.525 C365.79,92.4749948 366.087497,91.5533373 366.6825,90.76 C367.277503,89.9666627 368.070828,89.3483356 369.0625,88.905 C370.054172,88.4616645 371.133328,88.24 372.3,88.24 C373.420006,88.24 374.534161,88.4499979 375.6425,88.87 C376.750839,89.2900021 377.654997,89.9316623 378.355,90.795 C378.635001,91.1216683 378.775,91.4599982 378.775,91.81 C378.775,92.1833352 378.588335,92.5449982 378.215,92.895 C377.981666,93.105001 377.690002,93.21 377.34,93.21 C376.919998,93.21 376.581668,93.0700014 376.325,92.79 C375.834998,92.2299972 375.23417,91.7983349 374.5225,91.495 C373.81083,91.1916652 373.023338,91.04 372.16,91.04 C371.273329,91.04 370.520836,91.2208315 369.9025,91.5825 C369.284164,91.9441685 368.975,92.5566623 368.975,93.42 C368.998333,94.2366708 369.354163,94.8433313 370.0425,95.24 C370.730837,95.6366687 371.78666,96.0216648 373.21,96.395 C374.446673,96.7216683 375.473329,97.0716648 376.29,97.445 C377.106671,97.8183352 377.794997,98.3724963 378.355,99.1075 C378.915003,99.8425037 379.195,100.804994 379.195,101.995 C379.195,103.091672 378.880003,104.042496 378.25,104.8475 C377.619997,105.652504 376.797505,106.270831 375.7825,106.7025 C374.767495,107.134169 373.688339,107.35 372.545,107.35 C371.074993,107.35 369.71584,107.093336 368.4675,106.58 C367.21916,106.066664 366.163338,105.250006 365.3,104.13 Z M396.695,97.13 C396.671667,97.5500021 396.496668,97.9058319 396.17,98.1975 C395.843332,98.4891681 395.458336,98.635 395.015,98.635 L382.695,98.635 C382.858334,100.338342 383.505828,101.703328 384.6375,102.73 C385.769172,103.756672 387.151659,104.27 388.785,104.27 C389.905006,104.27 390.814997,104.106668 391.515,103.78 C392.215004,103.453332 392.833331,103.033336 393.37,102.52 C393.720002,102.309999 394.058332,102.205 394.385,102.205 C394.781669,102.205 395.114165,102.344999 395.3825,102.625 C395.650835,102.905001 395.785,103.231665 395.785,103.605 C395.785,104.095002 395.551669,104.538331 395.085,104.935 C394.40833,105.61167 393.510006,106.183331 392.39,106.65 C391.269994,107.116669 390.126673,107.35 388.96,107.35 C387.069991,107.35 385.407507,106.953337 383.9725,106.16 C382.537493,105.366663 381.429171,104.25834 380.6475,102.835 C379.865829,101.41166 379.475,99.8016756 379.475,98.005 C379.475,96.0449902 379.877496,94.3241741 380.6825,92.8425 C381.487504,91.3608259 382.54916,90.2233373 383.8675,89.43 C385.18584,88.6366627 386.603326,88.24 388.12,88.24 C389.613341,88.24 391.013327,88.6249962 392.32,89.395 C393.626673,90.1650039 394.676663,91.2266599 395.47,92.58 C396.263337,93.9333401 396.671667,95.4499916 396.695,97.13 Z M388.12,91.32 C386.813327,91.32 385.681671,91.6874963 384.725,92.4225 C383.768329,93.1575037 383.138335,94.2949923 382.835,95.835 L393.16,95.835 L393.16,95.555 C393.043333,94.3183272 392.489172,93.3033373 391.4975,92.51 C390.505828,91.7166627 389.380006,91.32 388.12,91.32 Z" id="path-1"></path>
    </defs>
    <g id="ðŸ -Home" stroke="none" stroke-width="1" fill="none" fill-rule="evenodd">
        <g id="Home/V3" transform="translate(-163.000000, -88.000000)" fill-rule="nonzero">
            <g id="Top" transform="translate(-65.000000, 0.000000)">
                <g id="mayoneese">
                    <use fill-opacity="0.98" fill="#FDF8EC" xlink:href="#path-1"></use>
                    <use fill="#FF1A1A" xlink:href="#path-1"></use>
                </g>
            </g>
        </g>
    </g>
</svg>